<?xml version="1.0" encoding="UTF-8"?>
<svg xmlns="http://www.w3.org/2000/svg" version="1.1"
     width="512" height="512" x="0" y="0" viewBox="0 0 512 512" style="enable-background:new 0 0 512 512" xml:space="preserve" class="">
    <circle cx="256" cy="256" fill="#eee" r="256"></circle>
    <g>
        <path d="m141.721 401.188c-57.71 0-96.055-67.705-118.156-124.83 0 0 0 0 0-.01 5.533-14.831 20.224-78.168 28.423-93.535 23.16 84.294 58.919 218.375 89.733 218.375z" fill="#27ce90"></path>
        <path d="m488.435 276.348v.01c-22.101 57.124-60.446 124.83-118.156 124.83 30.814 0 61.676-134.081 84.836-218.375 8.199 15.367 27.788 78.704 33.32 93.535z" fill="#925cb4"></path>
        <path d="m512 198.607s-7.451 36.054-23.565 77.741c-5.533-14.831-12.378-30.935-20.576-46.301 5.008-18.214 9.056-36.316 11.813-53.389 18.981 12.126 32.328 21.949 32.328 21.949z" fill="#8ac9fe"></path>
        <path d="m369.401 401.178c-36.084-.172-67.847-11.51-93.622-25.877-12.348-6.886-27.209-6.886-39.557 0-25.776 14.367-57.538 25.705-93.622 25.877 37.982-.949 74.005-157.083 113.401-218.176 39.394 61.093 75.418 217.227 113.4 218.176z" fill="#ff4760"></path>
        <path d="m44.141 230.047c-8.198 15.366-15.043 31.47-20.576 46.301-16.114-41.687-23.565-77.741-23.565-77.741s13.347-9.824 32.328-21.949c2.756 17.073 6.805 35.175 11.813 53.389z" fill="#60b7ff"></path>
        <path d="m420.35 143.81c-7.89 10.59-7.5 119.76-23.65 119.76-48.96 0-102.74-45.79-140.7 13.09-37.9-58.79-114.12-46.65-163.1-46.61h-.22c-16.14 0 6.86-75.65-1.03-86.24 13.33-5.93 26.2-10.32 37.08-11.68 6.7-.85 12.95-1.05 18.9-.79 35.16 1.56 60.13 19.54 108.37 19.54 56.41 0 81-24.59 127.27-18.75 10.88 1.36 23.75 5.75 37.08 11.68z" fill="#ff4760"></path>
        <path d="m147.63 131.34c-14.95 11.59-47.47 42.75-54.73 98.71h-.22c-16.14 0 6.86-75.65-1.03-86.24 13.33-5.93 26.2-10.32 37.08-11.68 6.7-.85 12.95-1.05 18.9-.79z" fill="#f43151"></path>
        <path d="m127.98 160.181c-36.246 0-35.296 69.866-83.839 69.866-5.008-18.214-9.056-36.316-11.813-53.389 17.093-10.934 38.759-23.716 59.325-32.853 7.886 10.591 20.183 16.376 36.327 16.376z" fill="#fe860a"></path>
        <path d="m479.672 176.658c-2.756 17.073-6.805 35.175-11.813 53.389-81.862 3.513-47.594-69.866-83.839-69.866 16.144 0 28.441-5.785 36.326-16.376 20.567 9.137 42.233 21.919 59.326 32.853z" fill="#fea713"></path>
        <path d="m467.859 230.047c-23.161 84.293-66.766 171.141-97.58 171.141-.293 0-.586 0-.879-.01-37.982-.949-74.005-63.425-113.401-124.517 37.962-58.881 79.053-116.48 128.02-116.48 36.247 0 64.011 32.752 83.84 69.866z" fill="#3ad99e"></path>
        <path d="m256 276.66c-39.4 61.09-75.42 123.57-113.4 124.52-.29.01-.59.01-.88.01-1.33 0-2.68-.16-4.06-.48-30.48-7.02-71.36-90.01-93.52-170.66 18.28-34.23 43.31-64.74 75.52-69.28 2.72-.39 5.5-.59 8.32-.59 48.97 0 90.06 57.6 128.02 116.48z" fill="#925cb4"></path>
        <path d="m137.66 400.71c-30.48-7.02-71.36-90.01-93.52-170.66 18.28-34.23 43.31-64.74 75.52-69.28-28.35 39.82-52.79 116.09 18 239.94z" fill="#814ba2"></path>
    </g>
    <g fill="#ffce3c">
        <path d="m475.99 232.57.07-.04-1.72-3.21.97-3.51-.04-.01c4.18-15.82 7.52-31.11 9.94-45.56-1.78-1.17-3.63-2.36-5.54-3.58-1.81-1.16-3.66-2.33-5.56-3.53l-.42 2.56c-1.83 11.37-4.27 23.31-7.25 35.66-.23.92-.45 1.84-.68 2.77-4.45-7.35-9.03-14.03-13.71-20.04-11.34-14.56-23.33-25.19-35.89-31.8-1.7-.89-3.4-1.71-5.11-2.45.23-.12.44-.27.66-.41.58-.32 1.13-.65 1.69-1.01.15-.1.31-.18.45-.27h-.04c1.12-.74 2.21-1.51 3.26-2.34 3.03-2.39 5.76-5.18 8.13-8.38l.78-1.04c-1.89-.88-3.77-1.75-5.63-2.57-1.93-.86-3.85-1.69-5.76-2.47-6.89 8.49-17.17 12.78-30.57 12.78-39.3 0-73.12 33.81-104.11 76.42-8.15 11.2-16.11 23.01-23.91 34.99-7.8-11.98-15.76-23.79-23.91-34.99-30.99-42.61-64.81-76.42-104.11-76.42-1.1 0-2.17-.03-3.23-.09-11.83-.64-21.01-4.9-27.34-12.69-1.91.78-3.83 1.61-5.76 2.47-1.86.82-3.74 1.69-5.63 2.57l.78 1.04c1.96 2.62 4.14 4.98 6.54 7.07 2.35 2.04 4.91 3.82 7.65 5.34h-.04c-2.79 1.22-5.56 2.62-8.31 4.24-12.72 7.43-24.82 19.03-36.26 34.75-3.45 4.72-6.83 9.82-10.14 15.29-.79-3.19-1.53-6.35-2.25-9.47-2.28-9.97-4.18-19.65-5.68-28.95l-.42-2.56c-1.9 1.2-3.75 2.37-5.56 3.53-1.91 1.22-3.76 2.41-5.54 3.58 2.52 15.09 6.05 31.09 10.5 47.66.12.47.25.96.38 1.43-.56 1.06-1.11 2.13-1.66 3.21-5.47 10.76-10.72 22.57-15.67 35.25 1.03 2.81 2.11 5.67 3.22 8.56v.01c1.14 2.94 2.32 5.89 3.54 8.87l2.19-6.9c4.22-11.29 8.68-21.89 13.33-31.72 11.41 37.85 26.46 74.9 42.13 103.52 12.37 22.61 24.18 38.57 35.32 47.76 5.71 1.77 11.64 2.87 17.8 3.2 1.27.07 2.56.1 3.85.1.29 0 .59 0 .88-.01 8.59-.04 16.93-.72 25.01-1.92 28.11-16.96 54.72-58.65 82.52-102.21 1.95-3.05 3.91-6.11 5.87-9.18 1.96 3.07 3.92 6.13 5.87 9.19 27.8 43.55 54.41 85.24 82.52 102.2 8.08 1.2 16.42 1.88 25.01 1.92.29.01.59.01.88.01 7.54 0 14.76-1.16 21.65-3.3 11.14-9.19 22.95-25.15 35.32-47.76 15.67-28.63 30.71-65.68 42.13-103.52 4.65 9.82 9.1 20.41 13.32 31.69l2.15 7.05c1.24-3.01 2.43-6.02 3.59-8.99 0 0 0 0 0-.01 1.11-2.88 2.19-5.74 3.21-8.55-4.94-12.67-10.19-24.47-15.66-35.23zm-236.06 57.95c-27.24 42.67-53.27 83.45-78.56 98.5-6.35 3.79-12.66 5.95-18.92 6.1l-.34.01h-.39c-2.65 0-5.61-1-8.81-2.92-4.79-2.88-10.12-7.85-15.73-14.66l-.01-.01c-6.96-8.42-14.36-19.65-21.79-33.22-16.98-31.02-33.23-72.28-44.75-113.54.23-.43.48-.86.72-1.29 3.03-5.5 6.11-10.64 9.23-15.43v-.01c9.61-14.73 19.62-26.07 30.01-34.01 5.36-4.11 10.84-7.31 16.39-9.58 2.63-1.07 5.28-1.94 7.94-2.61 4.31-1.07 8.66-1.61 13.06-1.61 35.97 0 68.4 34.67 98.64 77.44 1.7 2.4 3.4 4.84 5.09 7.3 5.76 8.38 11.46 17.01 17.08 25.69-2.97 4.63-5.93 9.26-8.86 13.85zm176.69 53.8c-8.24 15.05-16.46 27.24-24.06 35.89 0 .01-.01.02-.01.03-.01.01-.01.01-.02.02-8.46 9.62-16.14 14.87-22.25 14.87h-.39l-.34-.01c-6.26-.15-12.56-2.31-18.91-6.09h-.01c-25.29-15.05-51.31-55.83-78.55-98.5-2.94-4.6-5.9-9.23-8.87-13.86 4.96-7.65 9.96-15.26 15.03-22.7 2.37-3.48 4.75-6.91 7.14-10.29 30.24-42.77 62.67-77.44 98.64-77.44 5.13 0 10.2.73 15.2 2.19 5.25 1.52 10.4 3.86 15.49 6.98 11.56 7.11 22.69 18.34 33.33 33.64 4.41 6.34 8.74 13.37 12.98 21.11.12.2.24.41.35.62-11.52 41.26-27.77 82.52-44.75 113.54z"></path>
        <path d="m137.87 401.09c-6.16-.33-12.09-1.43-17.8-3.2-11.14-9.19-22.95-25.15-35.32-47.76-15.67-28.62-30.72-65.67-42.13-103.52-4.65 9.83-9.11 20.43-13.33 31.72l-2.19 6.9c-1.22-2.98-2.4-5.93-3.54-8.87 0 0 0 0 0-.01-1.11-2.89-2.19-5.75-3.22-8.56 4.95-12.68 10.2-24.49 15.67-35.25.55-1.08 1.1-2.15 1.66-3.21-.13-.47-.26-.96-.38-1.43-4.45-16.57-7.98-32.57-10.5-47.66 1.78-1.17 3.63-2.36 5.54-3.58 1.81-1.16 3.66-2.33 5.56-3.53l.42 2.56c1.5 9.3 3.4 18.98 5.68 28.95.72 3.12 1.46 6.28 2.25 9.47 3.31-5.47 6.69-10.57 10.14-15.29 11.44-15.72 23.54-27.32 36.26-34.75 2.75-1.62 5.52-3.02 8.31-4.24h.04c-2.74-1.52-5.3-3.3-7.65-5.34-2.4-2.09-4.58-4.45-6.54-7.07l-.78-1.04c1.89-.88 3.77-1.75 5.63-2.57 1.93-.86 3.85-1.69 5.76-2.47 6.33 7.79 15.51 12.05 27.34 12.69-3.3 4.12-6.63 8.72-9.83 13.82-2.66.67-5.31 1.54-7.94 2.61-5.55 2.27-11.03 5.47-16.39 9.58-10.39 7.94-20.4 19.28-30.01 34.01v.01c-3.12 4.79-6.2 9.93-9.23 15.43-.24.43-.49.86-.72 1.29 11.52 41.26 27.77 82.52 44.75 113.54 7.43 13.57 14.83 24.8 21.79 33.22l.01.01c5.61 6.81 10.94 11.78 15.73 14.66 1.59 2.93 3.25 5.89 4.96 8.88z"></path>
    </g>
    <g fill="#eee">
        <path d="m137.718 300.727c-28.635-8.624-49.431-30.849-57.48-57.485-.948-3.139.07-6.518 2.594-8.611 21.418-17.755 51.024-24.809 79.67-16.185 28.635 8.624 49.42 30.848 57.478 57.485.95 3.139-.068 6.52-2.593 8.613-21.419 17.753-51.034 24.806-79.669 16.183z"></path>
        <path d="m374.27 300.727c-28.635 8.624-58.24 1.57-79.658-16.185-2.524-2.092-3.542-5.472-2.594-8.611 8.049-26.637 28.845-48.862 57.48-57.486 28.634-8.624 58.249-1.57 79.668 16.184 2.525 2.093 3.543 5.474 2.593 8.613-8.058 26.637-28.854 48.861-57.489 57.485z"></path>
    </g>
</svg>
